<svg xmlns="http://www.w3.org/2000/svg" width="112" height="112" viewBox="0 0 112 112" fill="none"><path d="M45.424 34.128L51.68 0.032H64.672L53.104 54.4H39.52L32.256 23.392L25.104 54.384H11.536L0 0H13.024L19.232 34.096L26.736 0.016H37.856L45.408 34.112L45.424 34.128Z" fill="#232222"></path><path d="M69.76 54.416L69.792 0.0479965H89.328C96.32 0.0479965 101.648 1.344 105.28 3.92C108.928 6.48 110.752 10.208 110.736 15.088C110.736 17.904 110.08 20.304 108.784 22.288C107.488 24.272 105.584 25.744 103.072 26.688C105.904 27.44 108.096 28.832 109.6 30.88C111.12 32.928 111.872 35.408 111.872 38.352C111.872 43.68 110.176 47.68 106.8 50.352C103.424 53.024 98.432 54.384 91.808 54.432H69.744L69.76 54.416ZM82.88 31.312V44.336H91.456C93.824 44.336 95.648 43.792 96.912 42.72C98.176 41.632 98.816 40.112 98.816 38.144C98.816 33.616 96.56 31.328 92.064 31.312H82.88ZM82.88 22.72H89.712C92.576 22.704 94.624 22.176 95.84 21.152C97.056 20.128 97.664 18.624 97.664 16.624C97.664 14.32 97.008 12.672 95.68 11.664C94.368 10.656 92.24 10.144 89.296 10.144H82.88V22.72Z" fill="#232222"></path><path d="M111.888 84H5.792L1.648 64.528H111.888V84Z" fill="#FF0037"></path><path d="M111.888 112H11.744L7.6 92.528H111.888V112Z" fill="#FF0037"></path></svg>